<?xml version="1.0" standalone="no"?>
<!DOCTYPE svg PUBLIC "-//W3C//DTD SVG 20010904//EN"
 "http://www.w3.org/TR/2001/REC-SVG-20010904/DTD/svg10.dtd">
<svg version="1.0" xmlns="http://www.w3.org/2000/svg"
 width="480.000000pt" height="480.000000pt" viewBox="0 0 480.000000 480.000000"
 preserveAspectRatio="xMidYMid meet">
<metadata>
Created by potrace 1.11, written by Peter Selinger 2001-2013
</metadata>
<g transform="translate(0.000000,480.000000) scale(0.100000,-0.100000)"
fill="#000000" stroke="none">
<path d="M47 3683 c-4 -3 -7 -21 -7 -40 l0 -33 58 0 c3090 -2 4657 2 4662 10
4 6 5 24 2 40 l-4 30 -2352 0 c-1294 0 -2356 -3 -2359 -7z"/>
<path d="M44 2926 c-3 -8 -4 -26 -2 -41 l3 -27 1125 -1 c1103 -1 1208 -4 1183
-32 -5 -4 -3 -5 3 -2 6 4 34 1 62 -5 50 -12 51 -14 46 -42 -7 -41 -7 -201 1
-256 3 -24 12 -52 20 -60 8 -9 12 -20 8 -24 -5 -4 -3 -7 2 -6 19 4 36 0 32 -7
-3 -5 57 -8 134 -8 95 -1 143 -5 151 -13 14 -14 16 -107 3 -182 -17 -98 -13
-162 14 -202 38 -55 79 -72 174 -72 45 -1 85 -5 89 -11 5 -6 8 -6 8 1 0 17 76
16 90 -1 10 -12 10 -15 -1 -15 -12 0 -12 -2 -1 -9 11 -6 8 -23 -13 -86 -37
-110 -52 -184 -48 -225 5 -41 32 -90 50 -90 7 0 13 -5 13 -10 0 -6 3 -9 8 -9
21 4 53 -2 49 -9 -3 -4 6 -7 19 -7 13 0 24 3 24 7 0 3 20 5 44 5 24 -1 42 1
39 6 -6 10 26 9 67 -4 19 -5 46 -12 60 -15 13 -3 27 -8 30 -12 3 -4 15 -8 26
-10 35 -5 165 -48 160 -52 -2 -3 10 -6 27 -7 38 -2 180 -47 173 -54 -3 -3 5
-5 17 -5 32 -1 117 -27 117 -37 0 -4 4 -6 9 -3 5 3 37 -3 71 -14 35 -11 69
-20 76 -20 8 0 14 -5 14 -11 0 -5 4 -8 9 -4 5 3 20 1 33 -4 13 -5 44 -15 70
-21 26 -7 46 -16 43 -20 -2 -4 6 -6 19 -5 14 2 36 -3 49 -10 14 -7 28 -11 30
-8 3 2 16 -1 29 -8 12 -7 29 -12 36 -11 6 2 12 -2 12 -9 0 -8 4 -8 15 1 8 7
15 21 15 31 0 11 5 19 12 19 9 0 8 4 -2 14 -8 8 -69 31 -135 51 -155 47 -547
166 -695 211 -164 49 -190 58 -190 66 0 7 26 12 58 11 6 -1 12 2 12 6 0 4 35
18 78 30 42 12 87 27 100 32 13 5 28 7 33 4 5 -4 9 -2 9 3 0 12 148 54 162 46
7 -4 8 -3 4 4 -4 7 -1 13 8 13 20 2 25 3 59 17 15 7 38 14 51 16 14 2 33 9 43
14 10 6 20 10 23 9 3 0 30 8 60 18 30 11 61 20 68 22 6 2 20 5 30 7 9 3 18 5
20 6 1 2 7 4 12 5 6 1 12 4 15 5 3 1 8 3 13 5 4 1 15 5 25 9 9 5 24 5 33 2 8
-3 13 -2 10 2 -3 5 19 16 49 26 30 9 57 21 60 25 2 5 0 23 -6 40 -8 23 -16 30
-27 26 -15 -5 -537 -172 -692 -220 -41 -13 -154 -49 -250 -80 -96 -30 -184
-57 -195 -59 -11 -2 -36 -7 -55 -11 -129 -24 -179 -9 -175 53 1 20 3 37 5 37
1 0 3 11 6 25 2 14 15 57 28 95 38 112 38 162 -3 207 l-29 33 -141 0 c-138 0
-141 1 -166 26 -32 32 -32 37 -9 184 12 77 8 158 -9 191 -30 59 -58 68 -199
69 -75 1 -132 5 -139 12 -10 10 -15 147 -9 269 2 33 0 65 -3 71 -5 8 310 11
1076 11 595 1 1097 1 1115 1 32 1 33 2 30 39 l-3 37 -2353 3 c-2023 2 -2353 0
-2358 -12z"/>
</g>
</svg>
